<?xml version="1.0" encoding="UTF-8" standalone="no"?>
<!-- Created with Inkscape (http://www.inkscape.org/) -->

<svg
   xmlns:dc="http://purl.org/dc/elements/1.1/"
   xmlns:cc="http://creativecommons.org/ns#"
   xmlns:rdf="http://www.w3.org/1999/02/22-rdf-syntax-ns#"
   xmlns:svg="http://www.w3.org/2000/svg"
   xmlns="http://www.w3.org/2000/svg"
   version="1.1"
   width="207.57002"
   height="54.056252"
   id="svg2"
   xml:space="preserve"><metadata
     id="metadata8"><rdf:RDF><cc:Work
         rdf:about=""><dc:format>image/svg+xml</dc:format><dc:type
           rdf:resource="http://purl.org/dc/dcmitype/StillImage" /><dc:title></dc:title></cc:Work></rdf:RDF></metadata><defs
     id="defs6"><clipPath
       id="clipPath16"><path
         d="m 81,1017 630,0 0,-139.5 -630,0 0,139.5 z"
         id="path18" /></clipPath><clipPath
       id="clipPath32"><path
         d="m 376.899,1122.292 -582.802,0 0,-329.276 582.802,0 0,329.276 z"
         id="path34" /></clipPath><clipPath
       id="clipPath38"><path
         d="m -205.903,1122.292 582.871,0 0,-329.774 -582.871,0 0,329.774"
         id="path40" /></clipPath><clipPath
       id="clipPath44"><path
         d="M 151.196,967.855 81,982.796 l 0,-40.491 70.196,25.55"
         id="path46" /></clipPath></defs><g
     transform="matrix(1.25,0,0,-1.25,-110.5,396.3602)"
     id="g10"><g
       transform="translate(101,293)"
       id="g282"><path
         d="m 0,0.056252 14,0 0,7 -14,0 0,7 15.247472,0 -4.976068,8 -21.271404,0 0,-37 30,0 0,9 -19,0 0,6"
         id="path284"
         style="fill:#6d6e70;fill-opacity:1;fill-rule:nonzero;stroke:none" /></g><g
       transform="translate(140,315)"
       id="g286"><path
         d="m 0,0.056252 -6.42604,-12.074283 -6.284603,12.074283 -12.289357,0 13,-22.383763 0,-14.616237 11,0 0,14.616237 13,22.383763 -12,0"
         id="path288"
         style="fill:#6d6e70;fill-opacity:1;fill-rule:nonzero;stroke:none" /></g><g
       transform="translate(161.21402,294.10316)"
       id="g290"><path
         d="m 0,0 c 0,1.368 -0.947,1.968 -1.458,2.192 0.675,0.364 1.122,1.131 1.122,1.947 0,1.632 -1.116,2.569 -3.06,2.569 l -4.201,0 0,-9.858 4.158,0 C -1.286,-3.15 0,-1.972 0,0 z m -3.433,-1.482 -2.334,0 0,2.807 2.334,0 c 0.993,0 1.496,-0.471 1.496,-1.397 0,-0.896 -0.545,-1.41 -1.496,-1.41 z m -0.015,4.412 -2.319,0 0,2.105 2.222,0 c 0.875,0 1.3,-0.347 1.3,-1.06 0,-0.477 -0.208,-1.045 -1.203,-1.045"
         id="path292"
         style="fill:#6d6e70;fill-opacity:1;fill-rule:nonzero;stroke:none" /></g><g
       transform="translate(165.19002,290.79916)"
       id="g294"><path
         d="m 0,0 c 0.705,0 1.284,0.246 1.721,0.729 l 0,-0.575 1.779,0 0,7.201 -1.779,0 0,-3.978 c 0,-1.16 -0.45,-1.747 -1.338,-1.747 -0.903,0 -1.324,0.558 -1.324,1.758 l 0,3.967 -1.779,0 0,-4.07 C -2.72,2.059 -2.366,0 0,0"
         id="path296"
         style="fill:#6d6e70;fill-opacity:1;fill-rule:nonzero;stroke:none" /></g><g
       transform="translate(189.60602,294.93216)"
       id="g298"><path
         d="m 0,0 c 0,1.143 0.472,1.747 1.366,1.747 0.884,0 1.296,-0.558 1.296,-1.759 l 0,-3.967 1.78,0 0,4.071 C 4.442,2.241 3.529,3.377 1.804,3.377 1.071,3.377 0.436,3.107 0,2.614 l 0,0.608 -1.779,0 0,-7.201 1.779,0 L 0,0"
         id="path300"
         style="fill:#6d6e70;fill-opacity:1;fill-rule:nonzero;stroke:none" /></g><path
       d="m 170.28902,290.95316 1.779,0 0,7.201 -1.779,0 0,-7.201 z"
       id="path302"
       style="fill:#6d6e70;fill-opacity:1;fill-rule:nonzero;stroke:none" /><g
       transform="translate(173.65302,290.95316)"
       id="g304"><path
         d="m 0,0 1.779,0 0,10.195 L 0,9.305 0,0"
         id="path306"
         style="fill:#6d6e70;fill-opacity:1;fill-rule:nonzero;stroke:none" /></g><g
       transform="translate(181.08902,297.64616)"
       id="g308"><path
         d="m 0,0 c -0.434,0.45 -0.993,0.661 -1.597,0.661 -1.741,0 -2.823,-1.41 -2.823,-3.681 0,-2.397 1.042,-3.827 2.786,-3.827 0.598,0 1.158,0.223 1.634,0.703 l 0,-0.549 1.776,0 0,10.195 L 0,2.612 0,0 z m -1.252,-5.208 c -0.618,0 -1.355,0.387 -1.355,2.23 0,1.661 0.724,2.009 1.332,2.009 0.667,0 1.067,-0.396 1.275,-0.701 l 0,-2.829 c -0.264,-0.343 -0.591,-0.709 -1.252,-0.709"
         id="path310"
         style="fill:#6d6e70;fill-opacity:1;fill-rule:nonzero;stroke:none" /></g><g
       transform="translate(219.88102,298.30716)"
       id="g312"><path
         d="m 0,0 c -0.554,0 -1.144,-0.248 -1.596,-0.668 l 0,3.324 -1.778,-0.887 0,-9.123 1.778,0 0,0.539 c 0.439,-0.454 1.002,-0.693 1.633,-0.693 1.774,0 2.791,1.395 2.791,3.827 C 2.828,-1.41 1.745,0 0,0 z m -0.331,-1.63 c 0.649,0 1.343,-0.527 1.343,-2.009 0,-1.5 -0.428,-2.23 -1.306,-2.23 -0.667,0 -1.11,0.444 -1.302,0.677 l 0,2.832 c 0.293,0.454 0.743,0.73 1.265,0.73"
         id="path314"
         style="fill:#6d6e70;fill-opacity:1;fill-rule:nonzero;stroke:none" /></g><g
       transform="translate(199.66402,297.64916)"
       id="g316"><path
         d="m 0,0 c -0.429,0.428 -0.993,0.661 -1.598,0.661 -1.743,0 -2.825,-1.409 -2.825,-3.681 0,-2.396 1.042,-3.827 2.789,-3.827 0.625,0 1.176,0.234 1.634,0.696 l 0,-0.168 c 0,-0.789 -0.003,-1.869 -2.301,-1.909 l -0.081,-0.002 0.63,-1.398 0.035,10e-4 c 2.352,0.038 3.494,1.216 3.494,3.602 l 0,6.532 L 0,0.507 0,0 z m 0,-1.67 0,-2.828 c -0.283,-0.369 -0.624,-0.709 -1.262,-0.709 -0.613,0 -1.346,0.386 -1.346,2.229 0,1.662 0.725,2.01 1.333,2.01 0.668,0 1.067,-0.397 1.275,-0.702"
         id="path318"
         style="fill:#6d6e70;fill-opacity:1;fill-rule:nonzero;stroke:none" /></g><g
       transform="translate(206.96602,296.38616)"
       id="g320"><path
         d="m 0,0 c 0.566,0.319 1.098,0.497 1.842,0.497 0.84,0 1.285,-0.357 1.285,-1.034 l 0,-0.487 c -0.411,0.208 -1.001,0.34 -1.53,0.34 -1.324,0 -2.871,-0.618 -2.871,-2.361 0,-1.876 1.439,-2.542 2.67,-2.542 0.506,0 1.243,0.197 1.731,0.743 l 0,-0.589 1.777,0 0,4.854 c 0,1.566 -1.086,2.5 -2.906,2.5 -0.986,0 -1.858,-0.22 -2.691,-0.695 L 0,0 z m 0.506,-3.045 c 0,0.641 0.459,1.023 1.226,1.023 0.525,0 0.983,-0.102 1.395,-0.355 l 0,-0.985 C 2.9,-3.74 2.384,-4.121 1.732,-4.121 c -0.757,0 -1.226,0.412 -1.226,1.076"
         id="path322"
         style="fill:#6d6e70;fill-opacity:1;fill-rule:nonzero;stroke:none" /></g><g
       transform="translate(228.42102,293.04516)"
       id="g324"><path
         d="m 0,0 c -0.322,-0.293 -0.765,-0.607 -1.42,-0.607 -0.356,0 -1.511,0.114 -1.598,1.569 l 4.414,0 c 0.01,0.149 0.02,0.36 0.02,0.539 0,2.285 -1.185,3.761 -3.02,3.761 -1.87,0 -3.227,-1.582 -3.227,-3.761 0,-2.276 1.339,-3.747 3.411,-3.747 0.949,0 1.866,0.371 2.542,1.13 L 0,0 z m -2.993,2.265 c 0.043,0.88 0.588,1.489 1.338,1.489 0.939,0 1.315,-0.759 1.357,-1.489 l -2.695,0"
         id="path326"
         style="fill:#6d6e70;fill-opacity:1;fill-rule:nonzero;stroke:none" /></g><g
       transform="translate(245.58302,293.04516)"
       id="g328"><path
         d="m 0,0 c -0.322,-0.293 -0.764,-0.607 -1.419,-0.607 -0.356,0 -1.512,0.114 -1.598,1.569 l 4.413,0 c 0.011,0.149 0.022,0.36 0.022,0.539 0,2.285 -1.186,3.761 -3.021,3.761 -1.87,0 -3.227,-1.582 -3.227,-3.761 0,-2.276 1.339,-3.747 3.411,-3.747 0.949,0 1.85,0.371 2.542,1.13 L 0,0 z m -2.993,2.265 c 0.044,0.88 0.589,1.489 1.339,1.489 0.939,0 1.315,-0.759 1.358,-1.489 l -2.697,0"
         id="path330"
         style="fill:#6d6e70;fill-opacity:1;fill-rule:nonzero;stroke:none" /></g><g
       transform="translate(238.30002,296.48616)"
       id="g332"><path
         d="m 0,0 1.619,0 0,1.668 -1.618,0 0,2.736 -1.779,-0.888 0,-1.848 -1.107,0 0,-1.668 1.107,0 0,-3.479 c 0,-1.018 0.503,-2.208 1.92,-2.208 0.563,0 1.081,0.117 1.495,0.333 l 0.209,1.678 C 1.518,-3.852 1.143,-4.002 0.77,-4.002 0.242,-4.002 0,-3.674 0,-3.033 L 0,0"
         id="path334"
         style="fill:#6d6e70;fill-opacity:1;fill-rule:nonzero;stroke:none" /></g><g
       transform="translate(235.06102,292.81016)"
       id="g336"><path
         d="m 0,0 c -0.327,-0.176 -0.703,-0.326 -1.076,-0.326 -0.528,0 -0.77,0.328 -0.77,0.969 l 0,3.033 1.518,0 0,1.668 -1.518,0 0,2.736 -1.777,-0.888 0,-1.848 -1.113,0 0,-1.668 1.113,0 0,-3.479 c 0,-1.018 0.502,-2.208 1.919,-2.208 0.563,0 1.08,0.117 1.495,0.333 L 0,0"
         id="path338"
         style="fill:#6d6e70;fill-opacity:1;fill-rule:nonzero;stroke:none" /></g><g
       transform="translate(252.85602,297.87216)"
       id="g340"><path
         d="m 0,0 c -0.342,0.266 -0.867,0.435 -1.341,0.435 -0.63,0 -1.164,-0.237 -1.591,-0.778 l 0,0.625 -1.779,0 0,-7.201 1.779,0 0,3.902 c 0,1.142 0.408,1.674 1.284,1.674 0.42,0 0.821,-0.148 1.179,-0.391 L 0,0"
         id="path342"
         style="fill:#6d6e70;fill-opacity:1;fill-rule:nonzero;stroke:none" /></g><path
       d="m 170.28902,299.18416 1.777,0 0,1.775 -1.777,0 0,-1.775 z"
       id="path344"
       style="fill:#6d6e70;fill-opacity:1;fill-rule:nonzero;stroke:none" /><path
       d="m 184.45202,290.95316 1.779,0 0,7.201 -1.779,0 0,-7.201 z"
       id="path346"
       style="fill:#6d6e70;fill-opacity:1;fill-rule:nonzero;stroke:none" /><path
       d="m 184.45202,299.18416 1.777,0 0,1.775 -1.777,0 0,-1.775 z"
       id="path348"
       style="fill:#6d6e70;fill-opacity:1;fill-rule:nonzero;stroke:none" /><g
       transform="translate(235.08502,285.06916)"
       id="g350"><path
         d="m 0,0 c -0.432,0.448 -0.992,0.658 -1.597,0.658 -1.741,0 -2.822,-1.407 -2.822,-3.68 0,-2.397 1.041,-3.826 2.785,-3.826 0.598,0 1.158,0.223 1.634,0.703 l 0,-0.55 1.778,0 0,10.196 L 0,2.611 0,0 z m -1.251,-5.21 c -0.619,0 -1.356,0.387 -1.356,2.23 0,1.662 0.725,2.009 1.333,2.009 0.668,0 1.067,-0.396 1.274,-0.7 L 0,-4.5 c -0.263,-0.344 -0.591,-0.71 -1.251,-0.71"
         id="path352"
         style="fill:#6d6e70;fill-opacity:1;fill-rule:nonzero;stroke:none" /></g><g
       transform="translate(175.13202,285.29416)"
       id="g354"><path
         d="m 0,0 c -0.34,0.266 -0.866,0.433 -1.341,0.433 -0.629,0 -1.163,-0.237 -1.59,-0.775 l 0,0.625 -1.779,0 0,-7.204 1.779,0 0,3.903 c 0,1.143 0.408,1.674 1.284,1.674 0.42,0 0.821,-0.147 1.179,-0.39 L 0,0"
         id="path356"
         style="fill:#6d6e70;fill-opacity:1;fill-rule:nonzero;stroke:none" /></g><g
       transform="translate(160.01702,282.92616)"
       id="g358"><path
         d="M 0,0 C -0.152,-0.679 -0.3,-1.351 -0.382,-1.814 -0.488,-1.255 -0.681,-0.476 -0.809,0 l -0.751,2.652 -1.513,0 L -3.824,0 c -0.132,-0.495 -0.327,-1.27 -0.427,-1.804 -0.089,0.541 -0.261,1.343 -0.36,1.763 l -0.664,2.693 -1.832,0 2.034,-7.203 1.537,0 0.79,2.931 c 0.132,0.445 0.333,1.332 0.401,1.625 0.095,-0.408 0.257,-1.04 0.391,-1.566 l 0.8,-2.99 1.528,0 2.034,7.203 -1.758,0 L 0,0"
         id="path360"
         style="fill:#6d6e70;fill-opacity:1;fill-rule:nonzero;stroke:none" /></g><g
       transform="translate(166.05202,285.73716)"
       id="g362"><path
         d="m 0,0 c -1.895,0 -3.272,-1.581 -3.272,-3.76 0,-2.18 1.377,-3.762 3.272,-3.762 1.897,0 3.274,1.582 3.274,3.762 C 3.274,-1.581 1.897,0 0,0 z m 0,-5.843 c -0.886,0 -1.458,0.818 -1.458,2.083 0,1.264 0.572,2.083 1.458,2.083 0.887,0 1.46,-0.819 1.46,-2.083 0,-1.265 -0.573,-2.083 -1.46,-2.083"
         id="path364"
         style="fill:#6d6e70;fill-opacity:1;fill-rule:nonzero;stroke:none" /></g><g
       transform="translate(226.79602,285.29416)"
       id="g366"><path
         d="m 0,0 c -0.34,0.266 -0.866,0.433 -1.341,0.433 -0.63,0 -1.163,-0.237 -1.59,-0.775 l 0,0.625 -1.779,0 0,-7.204 1.779,0 0,3.903 c 0,1.143 0.408,1.674 1.284,1.674 0.421,0 0.822,-0.147 1.178,-0.39 L 0,0"
         id="path368"
         style="fill:#6d6e70;fill-opacity:1;fill-rule:nonzero;stroke:none" /></g><g
       transform="translate(211.68202,282.92616)"
       id="g370"><path
         d="M 0,0 C -0.153,-0.679 -0.301,-1.351 -0.382,-1.814 -0.489,-1.255 -0.684,-0.476 -0.811,0 l -0.75,2.652 -1.514,0 L -3.825,0 c -0.133,-0.495 -0.327,-1.27 -0.427,-1.804 -0.09,0.541 -0.26,1.343 -0.361,1.763 l -0.661,2.693 -1.834,0 2.023,-7.165 0.01,-0.038 1.539,0 0.791,2.931 c 0.13,0.445 0.33,1.332 0.398,1.625 0.098,-0.408 0.257,-1.04 0.391,-1.566 l 0.802,-2.99 1.528,0 2.033,7.203 -1.758,0 L 0,0"
         id="path372"
         style="fill:#6d6e70;fill-opacity:1;fill-rule:nonzero;stroke:none" /></g><g
       transform="translate(217.70302,285.73316)"
       id="g374"><path
         d="m 0,0 c -1.896,0 -3.272,-1.58 -3.272,-3.759 0,-2.181 1.376,-3.762 3.272,-3.762 1.897,0 3.273,1.581 3.273,3.762 C 3.273,-1.58 1.897,0 0,0 z m 0,-5.842 c -0.886,0 -1.459,0.818 -1.459,2.083 0,1.264 0.573,2.083 1.459,2.083 0.886,0 1.459,-0.819 1.459,-2.083 0,-1.265 -0.573,-2.083 -1.459,-2.083"
         id="path376"
         style="fill:#6d6e70;fill-opacity:1;fill-rule:nonzero;stroke:none" /></g><g
       transform="translate(181.88302,285.57816)"
       id="g378"><path
         d="m 0,0 -2.056,0 -1.42,-1.85 c -0.19,-0.244 -0.452,-0.584 -0.674,-0.903 l 0,5.735 -1.771,-0.889 0,-9.296 1.771,0 0,2.157 0.941,1.186 1.514,-3.343 1.966,0 -2.192,4.829 L 0,0"
         id="path380"
         style="fill:#6d6e70;fill-opacity:1;fill-rule:nonzero;stroke:none" /></g><g
       transform="translate(188.40702,282.35216)"
       id="g382"><path
         d="m 0,0 c 0,1.143 0.473,1.747 1.366,1.747 0.885,0 1.297,-0.557 1.297,-1.758 l 0,-3.968 1.778,0 0,4.072 C 4.441,2.24 3.53,3.377 1.804,3.377 1.071,3.377 0.436,3.11 0,2.614 l 0,0.611 -1.779,0 0,-7.204 1.779,0 L 0,0"
         id="path384"
         style="fill:#6d6e70;fill-opacity:1;fill-rule:nonzero;stroke:none" /></g><g
       transform="translate(198.46602,285.07216)"
       id="g386"><path
         d="m 0,0 c -0.43,0.426 -0.992,0.659 -1.598,0.659 -1.743,0 -2.826,-1.408 -2.826,-3.681 0,-2.396 1.043,-3.827 2.79,-3.827 0.625,0 1.175,0.234 1.634,0.696 L 0,-6.321 C 0,-7.11 -0.003,-8.189 -2.301,-8.23 l -0.081,-10e-4 0.631,-1.398 0.034,10e-4 c 2.351,0.036 3.494,1.215 3.494,3.602 l 0,6.532 L 0,0.506 0,0 z M 0,-1.672 0,-4.5 c -0.284,-0.369 -0.625,-0.71 -1.262,-0.71 -0.613,0 -1.346,0.387 -1.346,2.23 0,1.661 0.725,2.009 1.332,2.009 0.668,0 1.068,-0.396 1.276,-0.701"
         id="path388"
         style="fill:#6d6e70;fill-opacity:1;fill-rule:nonzero;stroke:none" /></g><path
       d="m 183.25302,278.37316 1.779,0 0,7.204 -1.779,0 0,-7.204 z"
       id="path390"
       style="fill:#6d6e70;fill-opacity:1;fill-rule:nonzero;stroke:none" /><path
       d="m 183.25302,286.60516 1.777,0 0,1.777 -1.777,0 0,-1.777 z"
       id="path392"
       style="fill:#6d6e70;fill-opacity:1;fill-rule:nonzero;stroke:none" /><g
       transform="translate(227.64002,278.37516)"
       id="g394"><path
         d="m 0,0 1.779,0 0,10.185 L 0,9.296 0,0"
         id="path396"
         style="fill:#6d6e70;fill-opacity:1;fill-rule:nonzero;stroke:none" /></g></g></svg>