<svg xmlns:dc="http://purl.org/dc/elements/1.1/" xmlns:cc="http://creativecommons.org/ns#" xmlns:rdf="http://www.w3.org/1999/02/22-rdf-syntax-ns#" xmlns:svg="http://www.w3.org/2000/svg" xmlns="http://www.w3.org/2000/svg" xmlns:sodipodi="http://sodipodi.sourceforge.net/DTD/sodipodi-0.dtd" xmlns:inkscape="http://www.inkscape.org/namespaces/inkscape" version="1.2" width="321" height="56" xml:space="preserve" inkscape:version="0.48.5 r10040"><style>.style0{fill:	#000000;}.style1{fill:	#000000;fill-rule:	nonzero;}</style><title>Nouse</title><metadata><rdf:RDF><cc:Work rdf:about=""><dc:format>image/svg+xml</dc:format><dc:type rdf:resource="http://purl.org/dc/dcmitype/StillImage"/><dc:title>Nouse</dc:title></cc:Work></rdf:RDF></metadata><defs/><g transform="matrix(1.250000,0.000000,0.000000,-1.250000,-682.000000,672.000000)"><g transform="matrix(0.239776,0.000000,0.000000,0.239776,536.000000,408.000000)"><g transform="matrix(1.000000,0.000000,0.000000,1.000000,0.000000,0.000000)" class="style0"><path transform="matrix(1.000000,0.000000,0.000000,1.000000,0.000000,0.000000)" class="style1" d="M1040.97157347 457.093287068L1034.29867877 457.230401343L1034.29867877 462.714972331L1039.4925298 463.080610397L1039.59571889 457.778858442ZM1027.21302769 467.102629121L1017.61644201 456.133487146L1044.23922809 453.756839718L1047.64446817 464.268934111L1027.1098386 467.102629121Z"/></g><path transform="matrix(1.000000,0.000000,0.000000,1.000000,0.000000,0.000000)" class="style1" d="M1004.57527036 434.15521153L999.252185489 425.615495097L987.300353414 420.849141738L985.090771013 428.793064002L987.501224541 434.850304728L1015.92448906 446.368992011L1022.75410739 439.120162945L1004.27065261 433.738155612ZM1015.5227468 427.104980521L1006.98572389 417.770871861L1004.07309255 416.281386436L994.230407306 408.436763201L995.134327379 414.394704899L1003.97265698 425.218298983L1007.18659502 431.27553971L1023.15584964 433.956613474L1015.62318237 427.204279549ZM852.314955862 358.687950023L850.406680152 358.985847108L855.528893899 363.553602409L859.948058699 362.95780824L852.314955862 358.588650994ZM1110.63522558 459.675061803C1110.63522558 459.7 1086 466.7 1046.9 464.838611275C1045.95472259 462.7 1046.3 462.3 1046.3 462.256836539L1044.14688244 457.788380266L1051.77998528 455.20660553L1029.88503241 446.071094926L1012.50967989 449.645859945C1012.50967989 449.6 1020.2 462 1033.1 456.993988039C1031.2911303 458.7 1032.5 458.1 1032.5 458.08627735L1025.7671743 465.235807388L1025.86760986 465.13650836L1017.53145808 467.916881152C1017.53145808 467.9 1015 467.8 1022.5 470.101459775C1029.78459684 472.4 1055.9 466.6 1055.9 466.625993784C1055.89784339 466.6 1052.7 470.4 1040.4 472.981131595C1039.72771764 473.3 999.2 482.6 987 463.547723907C985.693384395 461.6 981.2 461 981.1 461.164547228C978.662894939 464.2 977.2 474.9 975.1 487.081593614C973.038503375 500 970.3 514.5 965.5 523.425037971C953.654439589 534.1 912.1 540.5 912.1 540.504470839L925.63291733 520.644665179L930.453824385 510.615463321L952.147906135 511.608453604L956.165328681 504.756820651L931.257308894 506.147007047C931.257308894 506.1 932.2 497.7 932.5 497.607290614C932.663406785 497.5 957.2 497.2 957.2 497.2100945L955.663150862 491.053554746L932.562971222 492.54304017L931.257308894 485.294211105L956.567070935 483.606127623L958.877088899 477.151690784L929.650339876 480.031362605L926.73770853 474.172719935L959.9818801 468.512675322L960.283186791 461.561743341L925.934224021 472.087440341L922.218108165 469.704263662C922.218108165 469.7 947.4 453.2 950.5 453.022026907L971.632405484 448.454271605L951.344421625 450.738149256C940.396945187 451.5 896.8 486.3 885.4 494.33042268C873.908602047 502.4 807.4 512.7 807.4 512.700742915C807.822001163 509.8 830.7 490.1 836.1 482.811735397C841.568350551 475.6 848.7 463.4 848.7 463.448424879L871.598584083 479.336269407C871.397712956 479 877.4 473.9 877.4 473.87482285L852.314955862 456.596791926L855.02671608 447.461281322L883.751287286 466.824591841L887.768709832 458.781370549L855.629329462 441.006844483L856.734120662 433.559417361L892.489181324 452.426232737L899.720541907 444.780207558L856.834556226 426.807083436L857.336734044 417.175077691L904.742320089 436.935584323L917.39720111 430.183250398L857.939347426 411.018537937L858.240654117 409.032557371C858.240654117 409 876.8 395.3 883.9 395.925085635C890.982647869 396.5 895 397.1 895 397.116673975L881.541704885 389.470648796L860.048494263 380.235839164L840.784732417 378.647054711L840.784732417 377.753363456L849.904502334 374.774392607L834.738732222 374.377196494L834.437425531 372.589813985L834.336989967 370.703132447L833.935247713 368.419254796L834.738732222 367.525563541L834.236554404 365.83748006L842.37183506 360.872528645L844.380546333 361.666920872L842.874012878 358.787249051L851.71234248 356.999866542L860.851978772 363.057107268L860.952414336 364.050097551L865.170708009 363.752200466C865.170708009 363.8 872.4 362.6 888.1 369.511544107C946.322643443 347.6 1001.6 401.7 1001.6 401.684429276C1001.56220345 401.7 1017.8 417.3 1024.6 429.686755257C1025.66673873 431.7 1029.3 434.9 1031.2 436.240491125C1034.00289052 437.6 1058.3 448.5 1061.3 448.454271605C1097.98034456 454.9 1108.3 457.9 1111 458.582772492C1113.74872806 459.3 1110.6 460 1110.6 460"/><g transform="matrix(1.000000,0.000000,0.000000,1.000000,0.000000,0.000000)" class="style0"/></g><g class="style0" transform="matrix(0.489503,0.000000,0.000000,-0.489503,298.000000,269.000000)"><path transform="matrix(1.000000,0.000000,0.000000,1.000000,0.000000,0.000000)" class="style0" d="M589.169014286 -529.108095354L589.169014286 -530.742406073L561.385732059 -530.742406073L561.385732059 -528.515595999C561.921855152 -528.4 563.5 -528.1 565.6 -527.503409602C567.689501976 -526.9 569.3 -526.3 570.4 -525.681474087C571.468305068 -525 572.3 -523.5 572.8 -521.22785394C572.62702272 -519 572.8 -516.1 572.8 -512.523050925L572.825907094 -479.626993019L533.680274152 -530.742406073L513.990721201 -530.742406073L513.990721201 -528.616814639C515.382911814 -528.5 517.2 -528 519.2 -527.098535043C521.250000824 -526.2 522.9 -525.3 524.1 -524.264413131C525.128246102 -523.5 525.8 -522.3 526.4 -520.924198021C526.766880395 -519.5 527.1 -518.1 527.1 -516.571796513L527.065206955 -482.359896291C527.216532022 -478.6 527 -475.7 526.5 -473.452655996C526.023225782 -471.3 525.2 -469.8 524.1 -468.999035849C523.43772893 -468.6 522 -468 520 -467.480756253C518.210528772 -466.9 516.6 -466.6 515.6 -466.468569856L515.62503192 -463.735666584L543.408314147 -463.735666584L543.408314147 -466.468569856C542.828955321 -466.6 541.2 -466.9 539 -467.581974893C536.66353975 -468.2 535.1 -468.9 534.1 -469.606347687C532.984178845 -470.4 532.2 -471.9 531.7 -474.161186474C530.532712767 -476.3 530.3 -479.2 530.3 -482.967208129L530.333828393 -518.494950668L573.656033173 -463.735666584L577.728839251 -463.735666584L577.728839251 -513.231581403C577.235951892 -516.5 577.4 -519.2 577.8 -521.531509859C578.230373758 -523.9 579.1 -525.4 580.4 -526.288785926C581.313081543 -526.8 582.8 -527.3 584.7 -527.807065521C586.682959621 -528.3 588.2 -528.6 589.2 -528.718033279Z"/><path transform="matrix(1.000000,0.000000,0.000000,1.000000,0.000000,0.000000)" class="style0" d="M662.712996652 -498.056191688C662.712996652 -503.3 661.9 -507.7 660.3 -511.894307341C658.718556146 -516 656.5 -519.6 653.6 -522.385297548C650.030648045 -525.9 646.2 -528.4 642.1 -529.978776173C638.047326527 -531.6 633.8 -532.4 629.3 -532.376716792C624.566089819 -532.4 620.2 -531.6 616.1 -529.878861981C611.983602225 -528.2 608.3 -525.7 605 -522.385297548C598.801948555 -516.2 595.7 -507.8 595.7 -497.306835245C595.706257163 -492.1 596.7 -487.4 598.5 -483.318848303C600.299863745 -479.2 602.8 -475.7 606 -472.727943904C609.087632858 -469.8 612.7 -467.5 616.5 -466.03369301C620.371927288 -464.5 624.5 -463.7 628.9 -463.735666584C633.753302983 -463.7 638.2 -464.5 642.1 -466.133607203C646.036207539 -467.7 649.6 -470 652.7 -472.927772289C656.22203083 -476.3 658.7 -480.2 660.3 -484.517818612C661.914108551 -488.8 662.7 -493.4 662.7 -498.505805554ZM651.129119184 -498.206062977C651.129119184 -489.1 649.3 -481.6 645.7 -475.825283869C642.141628046 -470 636.6 -466.9 629.3 -466.83300655C621.769981465 -467 616.3 -470.1 612.7 -475.925198062C609.087632858 -481.8 607.3 -489.1 607.3 -497.906320399C607.389995643 -507.9 609.3 -515.7 613.2 -521.086413046C617.07651387 -526.6 622.4 -529.4 629.3 -529.379291019C634.552191084 -529.3 638.7 -527.8 642 -524.783238166C645.237319438 -521.8 647.6 -518 649 -513.293106035C650.430092096 -508.6 651.2 -503.6 651.1 -498.305977169Z"/><path transform="matrix(1.000000,0.000000,0.000000,1.000000,0.000000,0.000000)" class="style0" d="M744.428532614 -529.108095354L744.428532614 -530.742406073L715.010939667 -530.742406073L715.010939667 -528.648445464C716.924833444 -528.5 718.5 -528.3 720.5 -527.751033774C722.52558673 -527.3 724.1 -526.6 725.5 -525.856497985C726.626138242 -525.2 727.4 -523.8 727.9 -521.568864357C727.885398518 -519.4 728.1 -516.6 728.1 -512.993597101L728.085425421 -484.675272674C728.926447627 -481.2 727.6 -477.6 725 -473.906332399C722.425573278 -470.2 717.3 -468.2 709.9 -467.923587802C702.622909876 -468.2 697.8 -470.1 695.5 -473.60719517C692.930697211 -477.1 691.9 -480.8 692.1 -484.475847855L692.130589598 -522.665700867C692.42153782 -523.8 692.6 -524.7 693 -525.557360755C693.421672336 -526.4 694.2 -527 695.4 -527.352184135C696.32206243 -527.7 697.5 -528 698.9 -528.149883414C699.836171431 -528.3 700.9 -528.5 701.9 -528.548733054L701.936453913 -530.742406073L672.518860967 -530.742406073L672.518860967 -528.548733054C673.318968579 -528.4 674.4 -528.3 675.8 -528.050171004C677.119479737 -527.8 678.3 -527.4 679.2 -526.953334495C680.319910186 -526.4 681.1 -525.7 681.5 -524.959086296C682.12469838 -524.2 682.3 -523.3 682.3 -522.167138817L682.324725283 -482.581312065C682.220165765 -477.4 684.3 -473.1 688.6 -469.419273952C692.921605078 -465.8 699.2 -463.9 707.6 -463.735666584C710.924026353 -463.7 714.4 -464.3 718.2 -465.530489963C722.025519472 -466.8 725.3 -468.9 728 -471.9120842C731.388142355 -474.9 732.9 -479 733 -484.176710625L732.988357579 -513.492159151C732.326904979 -516.5 732.5 -519.2 732.9 -521.469151947C733.327039494 -523.8 734.2 -525.4 735.5 -526.255347625C736.627483395 -526.9 738.1 -527.5 740 -527.850746184C741.928196325 -528.2 743.3 -528.5 744.3 -528.548733054Z"/><path transform="matrix(1.000000,0.000000,0.000000,1.000000,0.000000,0.000000)" class="style0" d="M798.360786349 -483.347395215C798.360786349 -488.8 797 -492.6 794.6 -495.183548618C792.157669219 -497.8 788.8 -499.9 784.5 -501.735190708C782.395386523 -502.7 780.2 -503.7 778 -504.355847544C775.887198058 -505.1 773.7 -506.1 771.2 -507.379682355C768.463795591 -508.8 766.4 -510.4 764.9 -512.318612546C763.379273354 -514.2 762.7 -516.7 762.7 -519.575816092C762.87082113 -523.3 764.1 -525.9 766.2 -527.336992107C768.362105147 -528.8 770.3 -529.5 771.9 -529.453676475C778.327768732 -529.4 783 -527.4 786.1 -523.909979321C789.106955876 -519.7 791.5 -515.1 793.3 -509.496366723L795.411763451 -509.496366723L794.903311227 -532.376716792L791.54752655 -532.376716792L788.191741873 -527.538581095C786.463004313 -528.8 784.3 -530.1 781.8 -530.96559388C779.242982735 -531.9 776.7 -532.4 774.2 -532.376716792C768.463795591 -532.3 763.8 -530.6 760.2 -527.236197613C756.667704 -523.9 754.7 -519.7 754.6 -514.435296914C754.633895105 -510.2 755.7 -506.6 757.6 -503.851875076C759.515036453 -501 762.4 -498.8 766.1 -497.199438492C768.768866926 -496.1 771.1 -495.1 773 -494.276398174C775.0736745 -493.5 777.4 -492.6 780.1 -491.454152351C783.005529191 -490.2 785.3 -488.6 787.1 -486.414427666C788.801884542 -484.3 789.6 -481.7 789.6 -478.754046145C789.6154081 -475 788.7 -472.1 786.7 -469.984925193C784.632576307 -467.8 781.5 -466.7 777.2 -466.658706901C771.2094376 -466.9 766.5 -468.9 763 -472.807171017C759.515036453 -476.6 756.8 -481.3 754.8 -486.616016654L752.60008621 -486.616016654L753.311919323 -463.735666584L756.667704 -463.735666584L760.125179122 -468.573802281C761.548845348 -467.4 763.6 -466.3 766.2 -465.247583989C768.87055737 -464.2 772.1 -463.7 776.1 -463.735666584C782.497076967 -463.8 787.8 -465.8 791.9 -469.380158231C795.920215675 -473 798.1 -477.8 798.2 -483.894565323Z"/><path transform="matrix(1.000000,0.000000,0.000000,1.000000,0.000000,0.000000)" class="style0" d="M863.733215118 -483.347395215L861.366282353 -483.347395215C860.774549161 -482.3 859.8 -480 858.2 -477.228695327C856.73103902 -474.4 855.2 -472.1 853.7 -470.452285028C852.490284481 -469.4 850.4 -468.7 847.6 -468.459223175C844.699130793 -468.3 841.5 -468.2 838.2 -468.25991699C833.554822354 -468.2 830.5 -468.6 829 -469.655060287C826.735801767 -470.8 826 -473.1 826.1 -476.929736049L826.144068576 -498.056191688L835.23139973 -498.056191688C837.696954695 -498 839.6 -497.6 840.7 -496.960007669C841.740464836 -496.4 842.6 -495.7 843.2 -494.966945816C843.811531006 -494.2 844.4 -492.9 845 -490.881169018C845.586730581 -488.2 846 -486.5 846.1 -484.981705934L849.024418645 -484.981705934L849.024418645 -512.764988161L846.079841573 -512.764988161C845.882597176 -511 845.6 -509.4 845 -507.622888581C844.501886396 -505.8 843.8 -504.4 843.1 -503.636764876C842.628064623 -503 841.8 -502.3 840.8 -501.743356116C839.669398666 -501.7 837.8 -501.4 835.2 -501.324813127L826.144068576 -501.324813127L826.144068576 -527.473784635L838.091443489 -527.473784635C839.570776468 -528.2 841.1 -528.2 842.3 -528.051772572C843.614286609 -528 844.8 -527.9 846 -527.752813294C848.150907744 -527.3 850.2 -525.8 852.2 -523.168771033C854.166861857 -520.7 855.5 -518.3 856.1 -516.0336096L858.83028296 -516.0336096L858.83028296 -530.742406073L806.532339945 -530.742406073L806.532339945 -528.649691128C807.518561931 -528.6 808.7 -528.4 810.3 -528.051772572C811.759316469 -527.8 813 -527.4 814 -526.955588553C815.21109342 -526.5 816 -525.9 816.4 -525.062179793C816.140959863 -524.3 816.3 -523.4 816.3 -522.271893199L816.33820426 -473.342224714C816.986292994 -472.2 816.8 -471.2 816.4 -470.452285028C816.000071008 -469.7 815.2 -469.1 814 -468.65852936C813.238649448 -468.4 812 -468.2 810.4 -467.861304619C808.800650512 -467.7 807.5 -467.6 806.5 -467.462692249L806.532339945 -465.369977304L862.549748735 -465.369977304Z"/></g></g></svg>
