<svg xmlns:svg="http://www.w3.org/2000/svg" xmlns="http://www.w3.org/2000/svg" width="234.9" height="70.3" viewBox="0 0 832.2 249.1" version="1.1"><style>.s0{fill:#000;}</style><defs><clipPath clipPathUnits="userSpaceOnUse"><path d="m28.7 28.3 750.5 0 0 936.1-750.5 0 0-936.1z"/></clipPath><clipPath clipPathUnits="userSpaceOnUse"><path d="m79.4 751.6 667.4 0 0 201.9-667.4 0 0-201.9z"/></clipPath><clipPath clipPathUnits="userSpaceOnUse"><path d="m28.7 751.6 750.1 0 0 201.9-750.1 0 0-201.9z"/></clipPath></defs><g transform="translate(-43.482703,-184.19641)"><g transform="matrix(1.25,0,0,-1.25,-56.349821,1375.0814)"><g clip-path="url(#clipPath4184)"><g transform="translate(560.1711,753.4139)"><path d="m0 0c-0.1 0-2.7 0.1-5.9 0.2-3.2 0.1-7.6 0.2-9.9 0.4-2.2 0.1-5.1 0.3-6.4 0.3-3.1 0.2-5.3 0.3-10 0.6-10.4 0.6-12 0.7-15.3 0.8-1.9 0.1-5 0.2-6.8 0.2-1.8 0.1-8.6 0.2-15 0.2-17.7 0.2-24.4 0.3-32.8 0.5-4.3 0.1-11.4 0.3-15.9 0.4-7.9 0.2-11.9 0.2-48.9 0.1-9.6 0-18.4 0-19.7 0.1-1.3 0-4.7 0.2-7.5 0.2-2.9 0.1-6.1 0.2-7.1 0.2-1 0.1-3.1 0.2-4.6 0.2-1.5 0.1-2.8 0.2-2.9 0.2-0.1 0-1.7 0.1-3.6 0.2-3.8 0.2-4.6 0.2-13.1 0.7-5.2 0.3-10.4 0.5-23.8 0.9-5.4 0.2-38.4 0.2-41.9 0-3.4-0.2-14.6-0.3-31.9-0.5-6.1-0.1-11.8-0.2-12.6-0.2-0.8 0-3.5-0.2-5.9-0.2-2.4-0.1-6.2-0.2-8.3-0.4-2.2-0.1-5.3-0.3-7-0.3-1.7-0.1-4.6-0.2-6.5-0.3-1.9-0.1-4.5-0.3-5.8-0.4-1.3-0.1-2.5-0.2-2.7-0.2-0.2 0-1.7-0.2-3.2-0.2-1.6-0.1-3.4-0.2-4.1-0.2-0.6-0.1-2.6-0.2-4.4-0.3-1.8-0.1-4.7-0.4-6.5-0.6-1.8-0.2-5.4-0.5-8.1-0.7-2.7-0.2-5.3-0.4-5.8-0.5-0.5-0.1-1.8-0.2-2.8-0.2-3.6-0.2-6.1-0.4-8.7-0.6-5.6-0.4-19.1 0-22.2 0.7-0.5 0.1-1.6 0.3-2.4 0.4-0.8 0.1-1.8 0.2-2.2 0.3-0.4 0.1-1.7 0.4-3 0.7-3.1 0.7-4.7 1.1-8 2.4-2.8 1.1-4.8 1.5-8.2 1.8-3.9 0.4-7 1.6-9.2 3.7-0.9 0.8-1.8 1.6-2.1 1.8-0.3 0.1-0.7 0.6-0.9 0.9-0.4 0.7-0.7 0.9-2.4 1.6-4.1 1.7-4.7 2.4-3.8 4.3 0.5 1 0.7 1 2 0.6 0.5-0.2 1.5-0.4 2.2-0.5 2.5-0.3 3.2 0.4 1.5 1.3-0.5 0.3-0.9 0.7-0.9 0.9 0 0.3-0.4 0.5-1.3 0.8-2 0.6-3.8 1.4-3.9 1.8-0.2 0.5 0.8 2.5 1.2 2.5 0.2 0 0.7 0 1.1 0 1-0.1 1.1 0.3 0.3 0.9l-0.7 0.5 0.6 0.3c0.4 0.2 1.2 0.3 3.2 0.2 1.5-0.1 2.8-0.2 2.9-0.3 0.1-0.1 0.8-0.2 1.4-0.2 0.7 0 1.5-0.2 1.8-0.3 1.2-0.5 17-1.4 17.5-1 0.2 0.1 0.1 0.3-0.2 0.7-0.3 0.3-0.4 0.6-0.3 0.8 0.1 0.2-0.4 0.3-1.7 0.3-1 0-2.2 0.1-2.6 0.1-0.4 0-2.5 0.1-4.5 0.2-2 0.1-4.6 0.3-5.6 0.5-1 0.2-2.2 0.3-2.6 0.3-0.4 0-0.9 0.1-1.1 0.3-0.2 0.2-1.1 0.5-1.9 0.7-1.4 0.3-1.6 0.4-1.7 1-0.1 0.6-0.2 0.7-1 0.7-0.6 0-1 0.2-1.1 0.5-0.1 0.2-0.4 0.4-0.6 0.4-0.7 0-0.3 0.7 0.6 1 1.3 0.5 2.4 0.6 7.1 0.7 3.6 0.1 4.2 0.2 6.1 0.8 1.4 0.5 2.4 0.6 2.8 0.6 0.5-0.1 1 0 1.8 0.5 0.6 0.3 1.3 0.5 1.4 0.5 0.3-0.1 1.6 0.3 2.1 0.6 1 0.6 2.8 0.9 5.7 1 3.1 0.1 10 0.3 12.1 0.5 2.8 0.2 6.5 0.6 6.8 0.7 0.2 0.1 1.1 0.2 2.1 0.2 1.7 0.1 6.9 0.8 13.5 1.7 5.1 0.7 7.5 1 10 1.1 1.3 0.1 3.3 0.1 4.4 0.2 1.1 0 2.4 0.2 2.9 0.3 1 0.3 7.5 0.8 7.7 0.6 0.1-0.1 1.2 0 2.4 0.1 1.2 0.1 2.9 0.3 3.7 0.3 0.8 0.1 3.2 0.2 5.2 0.3 2 0.1 4.1 0.2 4.5 0.2 0.4 0 1.1 0 1.4 0.1 0.3 0.1 1.9 0.2 3.5 0.3 6.8 0.3 9.1 0.4 12.5 0.5 2 0 5 0.1 6.6 0.2 1.7 0.1 4.7 0.2 6.7 0.3 2 0.1 6.1 0.2 9 0.4 4.8 0.2 16.1 0.5 18.6 0.5 1.9 0 5.7 0 10 0 2.4 0 6.7 0 9.4 0 2.7 0 6.9 0 9.2 0.1 2.3 0.1 6.1 0.2 8.4 0.3 5.6 0.1 8.9 0.3 15.7 0.7 3.1 0.2 7 0.4 8.6 0.5 1.6 0.1 4.3 0.2 5.9 0.3 1.7 0.1 4.7 0.3 6.7 0.3 2 0.1 4.4 0.2 5.3 0.2 3.8 0.3 11.5 0.4 24 0.4 27.5 0 29.3 0 45 0.7 8.7 0.4 11.2 0.5 11.4 0.6 0.1 0 1.6 0.1 3.5 0.1 1.8 0 4.6 0.1 6.2 0.2 4.8 0.3 13 0.5 27.3 0.6 7.4 0 16.6 0.1 20.4 0.2 12.7 0.3 38.6 0.3 45.5 0.1 3.7-0.1 8.1-0.2 9.9-0.2 1.7 0 4.5-0.1 6.3-0.2 3.1-0.2 8.1-0.5 10.8-0.6 2.1-0.1 8.5-0.5 13.7-0.9 5.1-0.4 10.2-0.7 14.2-0.9 5.9-0.3 11-0.6 12.8-0.8 1-0.1 2.2-0.2 2.7-0.2 0.4 0 1.5-0.1 2.4-0.2 1.7-0.2 4.5-0.4 13.6-1 6.1-0.4 7.8-0.5 8.6-0.7 0.3-0.1 1.4-0.2 2.4-0.2 1.9-0.1 5.5-0.6 5.7-0.7 0.2-0.1 2.5-0.3 6.6-0.6 1.9-0.1 4.2-0.3 5.1-0.4 3.2-0.4 5.6-0.5 5.8-0.3 0.1 0.2 0.3 0.2 0.5-0.1 0.4-0.3 2-0.6 5-0.7 1-0.1 3.5-0.4 6.1-0.7 0.4-0.1 1.7-0.2 2.8-0.3 7.1-0.7 8.3-0.9 19.7-2.5 2.6-0.4 5.1-0.7 5.6-0.8 0.4-0.1 1.7-0.3 2.8-0.4 1.1-0.2 3.1-0.5 4.4-0.7 1.3-0.2 3.5-0.5 4.8-0.7 1.3-0.2 3.3-0.5 4.5-0.7 1.2-0.2 2.5-0.4 2.9-0.4 1.2-0.2 5.1-0.8 6.3-1.1 1.1-0.2 4.3-0.7 7.5-1.1 0.8-0.1 2.7-0.4 4.2-0.7 1.5-0.3 3.6-0.5 4.6-0.6 1.1-0.1 2.1-0.2 2.3-0.4 0.2-0.1 0.4-0.2 0.6-0.1 0.2 0.1 0.8 0 1.5-0.1 0.6-0.1 2.6-0.3 4.3-0.6 4.1-0.5 5.5-0.7 9.3-1.2 1.7-0.3 3.9-0.5 4.8-0.6 0.9-0.1 1.8-0.2 2-0.2 0.2-0.1 1.3-0.2 2.6-0.3 1.6-0.2 2.3-0.3 2.5-0.6 0.2-0.2 0.3-0.5 0.3-0.5 0-0.4-1.8-0.8-4.1-0.9-0.2 0-0.3-0.1-0.3-0.2 0-0.2 2.2-0.7 3.3-0.8l0.8 0-0.8-0.4c-0.8-0.3-2.7-0.4-5.9-0.2-0.8 0.1-2.2 0-3.1-0.1-1-0.1-2.7-0.3-3.8-0.3-3.3-0.2-3.1-0.7 0.4-0.9 1.2-0.1 2.7-0.3 3.4-0.4 0.7-0.1 2.6-0.4 4.4-0.6 1.7-0.2 3.6-0.4 4.2-0.5 0.6-0.1 1.7-0.2 2.5-0.2 0.8 0 2.2-0.1 3.1-0.3 1.4-0.2 1.6-0.3 1.7-0.8 0.1-0.4 0-0.5-1-0.7-3.7-0.6-7.5-0.6-16.5-0.3-3.1 0.1-10.5 0.3-16.4 0.5-11.7 0.3-11.6 0.3-10.9-0.9 0.4-0.7 0.8-0.8 5.1-1.1 1.3-0.1 2.7-0.2 3.1-0.3 0.4-0.1 1.3-0.2 2.1-0.2 0.8 0 3.1-0.2 5.1-0.4 2-0.2 4.6-0.4 5.7-0.5 1.1-0.1 2.8-0.2 3.7-0.4 1-0.1 3.3-0.3 5.1-0.5 4.7-0.3 4.6-0.3 6-0.5 1.1-0.2 1.2-0.2 0.6-0.3-0.4-0.1-1.9-0.1-3.4-0.1-1.5 0-4.5 0.1-6.8 0.2-2.3 0.1-5 0.2-6 0.2-2.4 0.2-13.5 0.5-16.5 0.5-1.8 0-2.6-0.1-3.6-0.5-2.6-1-2.9-1.1-3.5-1.1-0.5 0-2 0.1-8.4 0.4-2.1 0.1-6.9-0.2-8.8-0.5-1.4-0.2-0.2-0.5 3.2-0.6 1.7-0.1 3.7-0.3 4.4-0.4l1.3-0.3-0.8-0.2c-0.5-0.1-0.7-0.3-0.6-0.4 0.3-0.3 1-0.4 3.8-0.7 1.3-0.1 3.4-0.4 4.7-0.6 1.2-0.2 3.5-0.4 5-0.5 1.5-0.1 3.5-0.2 4.4-0.2 0.9-0.1 2.8-0.2 4.3-0.2 1.5-0.1 3.6-0.2 4.6-0.2 1.1-0.1 2-0.2 2.1-0.3 0.1-0.3 0.7-0.3 0.7 0 0 0.3 1.2 0.3 1.6-0.1 0.3-0.2 1.7-0.4 4.7-0.6 2.4-0.2 4.8-0.4 5.3-0.5 0.6-0.1 1.5-0.3 2.1-0.4 1.5-0.3 1.9-0.5 1.9-1 0-0.3-0.2-0.4-0.4-0.5C172.2 7.7 164 7.6 154.1 7.6 140.3 7.6 136.1 7.5 135.9 7.3c-0.2-0.2-0.2-0.3-0.2-0.4 0.2-0.2 2.8-0.3 11-0.6 10.9-0.3 12.3-0.4 12.5-0.9 0.1-0.3 0.3-0.4 0.8-0.4 0.4 0 1-0.1 1.5-0.1 0.4-0.1 1.5-0.1 2.3-0.2 0.8 0 1.6-0.2 1.7-0.3 0.3-0.3 1.5-0.3-12.6-0.2C131.2 4.1 127.3 4.1 117.7 4.1 112.5 4 107.8 3.9 107.3 3.8 106.8 3.7 103.4 3.5 99.7 3.5 93.1 3.4 83.3 3 79.4 2.8 78.3 2.7 75.7 2.6 73.7 2.6 65.3 2.3 63.1 2.2 59.9 2 58 1.9 55.7 1.8 54.8 1.8 52.1 1.8 48.5 1.5 47.5 1.3 47.1 1.1 43.4 1 39.4 1 35.4 0.9 31.1 0.8 29.7 0.7 26.8 0.5 23.6 0.5 11.6 0.3 6.6 0.2 1.9 0.1 1.3 0 0.6 0 0.1 0 0 0m126.8 13.8c-0.1 0.1-0.3 0.1-0.4 0-0.2-0.1-0.1-0.1 0.1-0.1 0.2 0 0.4 0 0.3 0.1m34.6 11.6c0 0.1-0.1 0.2-0.2 0.2-0.1 0-0.2-0.1-0.2-0.2 0-0.1 0.1-0.2 0.2-0.2 0.1 0 0.2 0.1 0.2 0.2" fill="#000"/></g></g><g clip-path="url(#clipPath4196)"><g transform="translate(113.0194,814.1995)"><path d="m0 0 21.5 0 0 132.3-21.5 0 0 2.7 43.5 0 35.8-104.1 0.4 0 35.8 104.1 42.8 0 0-2.7-21.5 0 0-132.3 21.5 0 0-2.7-62.3 0 0 2.7 21.5 0 0 131.2-0.4 0L70.8-2.9 24.8 129.8l-0.4 0 0-129.8 21.5 0 0-2.7L0-2.7 0 0Zm167.2 135 62.3 0 0-2.7-21.5 0 0-93.4c0-7.7 0.7-14.3 2-19.6 1.4-5.4 3.4-9.7 6.1-13 2.7-3.3 6.1-5.6 10.1-7.1 4-1.4 8.6-2.1 13.7-2.1 7.2 0 13.6 1.1 19.2 3.2 5.5 2.1 10.3 5.9 14.3 11.3 1.3 1.7 2.4 3.3 3.4 5 1 1.7 1.8 3.6 2.5 5.9 0.7 2.3 1.3 5 1.6 8.1 0.4 3.2 0.6 7.1 0.6 11.7l0 90-21.5 0 0 2.7 45.8 0 0-2.7-21.5 0 0-93.8c0-5.4-0.6-10.4-1.7-14.8-1.2-4.4-3.5-9-7.2-13.8-3.5-4.6-8.3-8.4-14.5-11.2-6.2-2.8-14.4-4.2-24.6-4.2-15.5 0-27.3 3.8-35.5 11.4-8.2 7.6-12.3 19.3-12.3 35l0 91.5-21.5 0 0 2.7z" fill="#000"/></g><g transform="translate(437.6024,853.096)"><path d="m0 0 2.1 0c1.4-7 3.2-12.8 5.5-17.6 2.3-4.8 4.8-8.7 7.5-11.8 2.7-3.1 5.5-5.5 8.5-7.2 3-1.7 6-2.9 9-3.7 3-0.8 5.9-1.2 8.7-1.3 2.8-0.1 5.4-0.2 7.8-0.2 6.8 0 12.5 1 16.8 3.1 4.4 2.1 7.9 4.7 10.4 7.8 2.6 3.2 4.4 6.6 5.4 10.3 1 3.7 1.5 7.1 1.5 10.2 0 4.5-0.8 8.4-2.5 11.6-1.7 3.2-3.8 6-6.4 8.2-2.6 2.3-5.4 4.1-8.4 5.5-3 1.4-5.9 2.5-8.6 3.3L35.2 25C24.8 28.2 16.9 32.4 11.5 37.7 6.1 43 3.5 50.1 3.5 59c0 5.8 1 11.2 3.1 16.2 2.1 5 5 9.2 8.7 12.9 3.7 3.6 8.2 6.4 13.4 8.5 5.2 2.1 10.9 3.1 17.1 3.1 4.5 0 8.3-0.4 11.3-1.2 3-0.8 5.6-1.6 7.8-2.6 2.2-1 4.2-1.8 5.9-2.6 1.7-0.8 3.5-1.2 5.3-1.2 1.7 0 2.8 0.2 3.4 0.7 0.6 0.5 1.4 1.6 2.4 3.4l2.7 0 0-35-2.3 0c-0.8 4.6-2.1 9.1-4 13.5-1.9 4.3-4.3 8.1-7.3 11.4-3 3.3-6.5 5.9-10.7 7.9-4.2 2-9.1 3-14.6 3-3.1 0-6.5-0.4-10.3-1.3-3.7-0.8-7.2-2.3-10.4-4.3-3.2-2.1-5.9-4.8-8-8.1-2.1-3.4-3.2-7.6-3.2-12.8 0-4.1 0.8-7.7 2.5-10.6 1.7-2.9 3.8-5.3 6.5-7.3 2.6-2 5.6-3.7 8.9-5 3.3-1.3 6.6-2.5 10-3.6l23.4-7.3c2.4-0.8 5.5-1.8 9.3-3.1 3.7-1.3 7.4-3.2 10.9-5.8 3.6-2.6 6.6-6 9.1-10.3 2.5-4.3 3.8-9.7 3.8-16.2 0-6.1-1.1-11.8-3.4-17.3-2.3-5.5-5.5-10.3-9.8-14.5-4.3-4.2-9.4-7.5-15.5-10-6.1-2.5-12.9-3.8-20.5-3.8-2.7 0-5.1 0-7.2 0.1-2.1 0.1-4 0.2-5.8 0.5-1.8 0.3-3.6 0.5-5.4 0.9-1.8 0.3-3.8 0.8-6 1.4-2.6 0.8-5.4 1.7-8.3 2.7-3 1-5.5 1.5-7.7 1.5-1.9 0-3.3-0.4-4-1.2-0.7-0.8-1.3-1.8-1.8-3.1L0-41.6 0 0Z" fill="#000"/></g><g transform="translate(558.1074,814.1995)"><path d="m0 0 21.5 0 0 132.3-21.5 0 0 2.7 110.6 0 0-33.5-2.1 0c-1.7 5-3.5 9.5-5.4 13.3-1.9 3.8-4.3 7-7 9.7-2.7 2.6-5.9 4.6-9.7 5.9-3.7 1.3-8.2 1.9-13.5 1.9l-32.1 0 0-59.8 12.6 0c4.3 0 7.9 0.4 10.8 1.2 3 0.8 5.5 2.2 7.7 4.4 2.1 2.1 3.9 5 5.4 8.7 1.5 3.7 2.9 8.4 4.3 14.2l2.1 0 0-60.2-2.1 0c-0.9 3.7-1.8 7.3-2.8 10.8-1 3.5-2.3 6.6-4.1 9.3-1.7 2.7-4.1 4.9-7 6.5-2.9 1.6-6.7 2.4-11.3 2.4l-15.7 0 0-69.8 36.6 0c7.1 0 13 1.5 17.7 4.6 4.7 3 8.5 6.6 11.5 10.8 3 4.2 5.2 8.5 6.6 13.1 1.4 4.5 2.3 8.3 2.7 11.2l2.1 0 0-42.4L0-2.7 0 0Z" fill="#000"/></g><g transform="translate(704.9639,819.622)"><path d="m0 0c0 2.8 1 5.3 3 7.3 2 2 4.4 3 7.3 3 2.8 0 5.3-1 7.3-3 2-2 3-4.4 3-7.3 0-2.8-1-5.3-3-7.3-2-2-4.4-3-7.3-3-2.8 0-5.3 1-7.3 3C1-5.3 0-2.8 0 0" fill="#000"/></g></g></g></g></svg>
